<svg xmlns="http://www.w3.org/2000/svg" xmlns:xlink="http://www.w3.org/1999/xlink" width="480" zoomAndPan="magnify" viewBox="0 0 360 359.999987" height="480" preserveAspectRatio="xMidYMid meet" version="1.0"><defs><clipPath id="7de34b0b79"><path d="M 21.273438 15.28125 L 125 15.28125 L 125 261 L 21.273438 261 Z M 21.273438 15.28125 " clip-rule="nonzero"/></clipPath><clipPath id="81173f48a2"><path d="M 110 15.28125 L 214 15.28125 L 214 238 L 110 238 Z M 110 15.28125 " clip-rule="nonzero"/></clipPath><clipPath id="394658cbdc"><path d="M 199 15.28125 L 304 15.28125 L 304 230 L 199 230 Z M 199 15.28125 " clip-rule="nonzero"/></clipPath><clipPath id="b8c458135d"><path d="M 265 272 L 338 272 L 338 344.53125 L 265 344.53125 Z M 265 272 " clip-rule="nonzero"/></clipPath></defs><g clip-path="url(#7de34b0b79)"><path fill="#d8d8d8" d="M 28.492188 260.378906 C 27.050781 260.378906 25.621094 259.941406 24.410156 259.089844 C 22.507812 257.757812 21.371094 255.582031 21.371094 253.257812 L 21.371094 54.078125 C 21.371094 51.058594 23.28125 48.363281 26.132812 47.363281 L 115.277344 16.042969 C 117.457031 15.277344 119.871094 15.617188 121.753906 16.949219 C 123.636719 18.285156 124.757812 20.449219 124.757812 22.757812 L 124.757812 220.792969 C 124.757812 223.785156 122.886719 226.457031 120.074219 227.484375 L 30.929688 259.945312 C 30.136719 260.234375 29.3125 260.378906 28.492188 260.378906 Z M 35.613281 59.125 L 35.613281 243.089844 L 110.515625 215.808594 L 110.515625 32.808594 Z M 35.613281 59.125 " fill-opacity="1" fill-rule="nonzero"/></g><g clip-path="url(#81173f48a2)"><path fill="#d8d8d8" d="M 142.855469 237.90625 C 141.984375 237.90625 141.097656 237.746094 140.234375 237.40625 L 115.015625 227.414062 C 112.300781 226.335938 110.519531 223.714844 110.519531 220.792969 L 110.519531 22.761719 C 110.519531 20.4375 111.652344 18.261719 113.554688 16.925781 C 115.457031 15.59375 117.890625 15.277344 120.074219 16.070312 L 209.238281 48.535156 C 212.050781 49.558594 213.921875 52.230469 213.921875 55.222656 L 213.921875 146.113281 C 213.921875 150.046875 210.734375 153.234375 206.804688 153.234375 C 202.871094 153.234375 199.683594 150.046875 199.683594 146.113281 L 199.683594 60.207031 L 124.757812 32.929688 L 124.757812 215.957031 L 145.480469 224.167969 C 149.136719 225.613281 150.925781 229.753906 149.476562 233.40625 C 148.371094 236.203125 145.691406 237.90625 142.855469 237.90625 Z M 142.855469 237.90625 " fill-opacity="1" fill-rule="nonzero"/></g><g clip-path="url(#394658cbdc)"><path fill="#d8d8d8" d="M 295.949219 229.058594 C 292.015625 229.058594 288.828125 225.871094 288.828125 221.9375 L 288.828125 32.929688 L 213.921875 60.207031 L 213.921875 146.113281 C 213.921875 150.046875 210.734375 153.234375 206.804688 153.234375 C 202.871094 153.234375 199.683594 150.046875 199.683594 146.113281 L 199.683594 55.222656 C 199.683594 52.230469 201.554688 49.558594 204.367188 48.535156 L 293.511719 16.070312 C 295.695312 15.273438 298.128906 15.59375 300.03125 16.929688 C 301.933594 18.261719 303.066406 20.4375 303.066406 22.761719 L 303.066406 221.9375 C 303.066406 225.871094 299.878906 229.058594 295.949219 229.058594 Z M 295.949219 229.058594 " fill-opacity="1" fill-rule="nonzero"/></g><path fill="#d8d8d8" d="M 219.140625 305.863281 C 172.863281 305.863281 135.21875 268.214844 135.21875 221.9375 C 135.21875 175.660156 172.867188 138.011719 219.140625 138.011719 C 265.417969 138.011719 303.066406 175.660156 303.066406 221.9375 C 303.066406 268.214844 265.417969 305.863281 219.140625 305.863281 Z M 219.140625 152.25 C 180.714844 152.25 149.457031 183.511719 149.457031 221.9375 C 149.457031 260.363281 180.71875 291.625 219.140625 291.625 C 257.566406 291.625 288.828125 260.363281 288.828125 221.9375 C 288.828125 183.511719 257.566406 152.25 219.140625 152.25 Z M 219.140625 152.25 " fill-opacity="1" fill-rule="nonzero"/><g clip-path="url(#b8c458135d)"><path fill="#d8d8d8" d="M 330.71875 344.707031 C 328.898438 344.707031 327.074219 344.011719 325.683594 342.621094 L 267.457031 284.394531 C 264.679688 281.617188 264.679688 277.105469 267.457031 274.324219 C 270.238281 271.546875 274.746094 271.546875 277.527344 274.324219 L 335.753906 332.550781 C 338.535156 335.332031 338.535156 339.839844 335.753906 342.621094 C 334.363281 344.011719 332.542969 344.707031 330.71875 344.707031 Z M 330.71875 344.707031 " fill-opacity="1" fill-rule="nonzero"/></g><path fill="#d8d8d8" d="M 172.972656 231.445312 C 169.042969 231.445312 165.855469 228.257812 165.855469 224.324219 C 165.855469 192.542969 191.722656 166.683594 223.515625 166.683594 C 227.449219 166.683594 230.636719 169.871094 230.636719 173.804688 C 230.636719 177.734375 227.449219 180.921875 223.515625 180.921875 C 199.574219 180.921875 180.09375 200.394531 180.09375 224.324219 C 180.09375 228.257812 176.90625 231.445312 172.972656 231.445312 Z M 172.972656 231.445312 " fill-opacity="1" fill-rule="nonzero"/></svg>