<svg xmlns="http://www.w3.org/2000/svg" xmlns:xlink="http://www.w3.org/1999/xlink" width="480" zoomAndPan="magnify" viewBox="0 0 360 359.999987" height="480" preserveAspectRatio="xMidYMid meet" version="1.0"><defs><clipPath id="2c8c30220c"><path d="M 124 259 L 236 259 L 236 325.644531 L 124 325.644531 Z M 124 259 " clip-rule="nonzero"/></clipPath><clipPath id="0f879dee15"><path d="M 148 296 L 160 296 L 160 325.644531 L 148 325.644531 Z M 148 296 " clip-rule="nonzero"/></clipPath><clipPath id="699ae9dc61"><path d="M 199 296 L 212 296 L 212 325.644531 L 199 325.644531 Z M 199 296 " clip-rule="nonzero"/></clipPath><clipPath id="c81c109902"><path d="M 233 259 L 331 259 L 331 325.644531 L 233 325.644531 Z M 233 259 " clip-rule="nonzero"/></clipPath><clipPath id="8deb52f6eb"><path d="M 243 296 L 256 296 L 256 325.644531 L 243 325.644531 Z M 243 296 " clip-rule="nonzero"/></clipPath><clipPath id="f50fd55d67"><path d="M 295 296 L 307 296 L 307 325.644531 L 295 325.644531 Z M 295 296 " clip-rule="nonzero"/></clipPath><clipPath id="c49c6bfeda"><path d="M 29 259 L 127 259 L 127 325.644531 L 29 325.644531 Z M 29 259 " clip-rule="nonzero"/></clipPath><clipPath id="181357c5a3"><path d="M 104 296 L 117 296 L 117 325.644531 L 104 325.644531 Z M 104 296 " clip-rule="nonzero"/></clipPath><clipPath id="d25e13e805"><path d="M 53 296 L 65 296 L 65 325.644531 L 53 325.644531 Z M 53 296 " clip-rule="nonzero"/></clipPath><clipPath id="b7321253d5"><path d="M 147 34.644531 L 213 34.644531 L 213 101 L 147 101 Z M 147 34.644531 " clip-rule="nonzero"/></clipPath><clipPath id="8f1c1fab92"><path d="M 20.109375 314 L 339.609375 314 L 339.609375 325.644531 L 20.109375 325.644531 Z M 20.109375 314 " clip-rule="nonzero"/></clipPath></defs><path fill="#d8d8d8" d="M 180 274.089844 C 164.203125 274.089844 151.414062 261.300781 151.414062 245.503906 C 151.414062 229.707031 164.203125 216.917969 180 216.917969 C 195.792969 216.917969 208.585938 229.707031 208.585938 245.503906 C 208.585938 261.300781 195.792969 274.089844 180 274.089844 Z M 180 228.160156 C 170.40625 228.160156 162.652344 235.910156 162.652344 245.503906 C 162.652344 255.097656 170.40625 262.847656 180 262.847656 C 189.59375 262.847656 197.34375 255.097656 197.34375 245.503906 C 197.34375 235.910156 189.59375 228.160156 180 228.160156 Z M 180 228.160156 " fill-opacity="1" fill-rule="nonzero"/><g clip-path="url(#2c8c30220c)"><path fill="#d8d8d8" d="M 229.515625 325.351562 L 130.484375 325.351562 C 127.382812 325.351562 124.863281 322.832031 124.863281 319.730469 L 124.863281 313.335938 C 124.863281 287.753906 142.207031 265.757812 167.113281 259.75 C 168.566406 259.359375 170.019531 259.652344 171.277344 260.332031 C 176.800781 263.625 183.199219 263.625 188.816406 260.332031 C 190.078125 259.554688 191.53125 259.359375 192.984375 259.75 C 217.886719 265.757812 235.234375 287.753906 235.234375 313.335938 L 235.234375 319.730469 C 235.136719 322.832031 232.617188 325.351562 229.515625 325.351562 Z M 136.101562 314.109375 L 223.894531 314.109375 L 223.894531 313.335938 C 223.894531 293.664062 211.007812 276.707031 192.304688 271.183594 C 184.554688 274.960938 175.445312 274.960938 167.691406 271.183594 C 148.992188 276.609375 136.101562 293.664062 136.101562 313.335938 Z M 136.101562 314.109375 " fill-opacity="1" fill-rule="nonzero"/></g><g clip-path="url(#0f879dee15)"><path fill="#d8d8d8" d="M 154.320312 325.351562 C 151.21875 325.351562 148.699219 322.832031 148.699219 319.730469 L 148.699219 302.484375 C 148.699219 299.382812 151.21875 296.863281 154.320312 296.863281 C 157.421875 296.863281 159.941406 299.382812 159.941406 302.484375 L 159.941406 319.730469 C 159.941406 322.832031 157.421875 325.351562 154.320312 325.351562 Z M 154.320312 325.351562 " fill-opacity="1" fill-rule="nonzero"/></g><g clip-path="url(#699ae9dc61)"><path fill="#d8d8d8" d="M 205.582031 325.351562 C 202.480469 325.351562 199.960938 322.832031 199.960938 319.730469 L 199.960938 302.484375 C 199.960938 299.382812 202.480469 296.863281 205.582031 296.863281 C 208.683594 296.863281 211.203125 299.382812 211.203125 302.484375 L 211.203125 319.730469 C 211.203125 322.832031 208.683594 325.351562 205.582031 325.351562 Z M 205.582031 325.351562 " fill-opacity="1" fill-rule="nonzero"/></g><path fill="#d8d8d8" d="M 275.0625 274.089844 C 259.265625 274.089844 246.476562 261.300781 246.476562 245.503906 C 246.476562 229.707031 259.265625 216.917969 275.0625 216.917969 C 290.855469 216.917969 303.648438 229.707031 303.648438 245.503906 C 303.648438 261.300781 290.855469 274.089844 275.0625 274.089844 Z M 275.0625 228.160156 C 265.46875 228.160156 257.714844 235.910156 257.714844 245.503906 C 257.714844 255.097656 265.46875 262.847656 275.0625 262.847656 C 284.652344 262.847656 292.40625 255.097656 292.40625 245.503906 C 292.40625 235.910156 284.652344 228.160156 275.0625 228.160156 Z M 275.0625 228.160156 " fill-opacity="1" fill-rule="nonzero"/><g clip-path="url(#c81c109902)"><path fill="#d8d8d8" d="M 324.578125 325.351562 L 249.382812 325.351562 C 246.28125 325.351562 243.761719 322.832031 243.761719 319.730469 C 243.761719 316.628906 246.28125 314.109375 249.382812 314.109375 L 318.957031 314.109375 L 318.957031 313.335938 C 318.957031 293.664062 306.070312 276.707031 287.367188 271.183594 C 279.613281 274.960938 270.507812 274.960938 262.753906 271.183594 C 255.195312 273.410156 248.316406 277.578125 242.890625 283.394531 C 240.757812 285.621094 237.171875 285.816406 234.941406 283.683594 C 232.714844 281.550781 232.519531 277.964844 234.652344 275.738281 C 242.113281 267.792969 251.511719 262.269531 262.074219 259.75 C 263.53125 259.359375 264.984375 259.652344 266.242188 260.332031 C 271.765625 263.625 278.160156 263.625 283.78125 260.332031 C 285.042969 259.554688 286.496094 259.359375 287.949219 259.75 C 312.851562 265.757812 330.199219 287.753906 330.199219 313.335938 L 330.199219 319.730469 C 330.199219 322.832031 327.679688 325.351562 324.578125 325.351562 Z M 324.578125 325.351562 " fill-opacity="1" fill-rule="nonzero"/></g><g clip-path="url(#8deb52f6eb)"><path fill="#d8d8d8" d="M 249.382812 325.351562 C 246.28125 325.351562 243.761719 322.832031 243.761719 319.730469 L 243.761719 302.484375 C 243.761719 299.382812 246.28125 296.863281 249.382812 296.863281 C 252.484375 296.863281 255.003906 299.382812 255.003906 302.484375 L 255.003906 319.730469 C 255.003906 322.832031 252.578125 325.351562 249.382812 325.351562 Z M 249.382812 325.351562 " fill-opacity="1" fill-rule="nonzero"/></g><g clip-path="url(#f50fd55d67)"><path fill="#d8d8d8" d="M 300.738281 325.351562 C 297.640625 325.351562 295.121094 322.832031 295.121094 319.730469 L 295.121094 302.484375 C 295.121094 299.382812 297.640625 296.863281 300.738281 296.863281 C 303.839844 296.863281 306.359375 299.382812 306.359375 302.484375 L 306.359375 319.730469 C 306.359375 322.832031 303.839844 325.351562 300.738281 325.351562 Z M 300.738281 325.351562 " fill-opacity="1" fill-rule="nonzero"/></g><path fill="#d8d8d8" d="M 84.9375 274.089844 C 69.144531 274.089844 56.351562 261.300781 56.351562 245.503906 C 56.351562 229.707031 69.144531 216.917969 84.9375 216.917969 C 100.734375 216.917969 113.523438 229.707031 113.523438 245.503906 C 113.523438 261.300781 100.636719 274.089844 84.9375 274.089844 Z M 84.9375 228.160156 C 75.34375 228.160156 67.59375 235.910156 67.59375 245.503906 C 67.59375 255.097656 75.34375 262.847656 84.9375 262.847656 C 94.53125 262.847656 102.285156 255.097656 102.285156 245.503906 C 102.285156 235.910156 94.433594 228.160156 84.9375 228.160156 Z M 84.9375 228.160156 " fill-opacity="1" fill-rule="nonzero"/><g clip-path="url(#c49c6bfeda)"><path fill="#d8d8d8" d="M 110.519531 325.351562 L 35.324219 325.351562 C 32.222656 325.351562 29.703125 322.832031 29.703125 319.730469 L 29.703125 313.335938 C 29.703125 287.753906 47.050781 265.757812 71.953125 259.75 C 73.40625 259.359375 74.859375 259.652344 76.121094 260.332031 C 81.644531 263.625 88.039062 263.625 93.660156 260.332031 C 94.917969 259.554688 96.371094 259.359375 97.828125 259.75 C 108.390625 262.269531 117.886719 267.792969 125.25 275.738281 C 127.382812 277.964844 127.285156 281.550781 124.960938 283.683594 C 122.730469 285.816406 119.144531 285.71875 117.011719 283.394531 C 111.585938 277.578125 104.804688 273.410156 97.148438 271.183594 C 89.394531 274.960938 80.285156 274.960938 72.535156 271.183594 C 53.832031 276.609375 40.945312 293.664062 40.945312 313.335938 L 40.945312 314.109375 L 110.519531 314.109375 C 113.621094 314.109375 116.140625 316.628906 116.140625 319.730469 C 116.140625 322.832031 113.621094 325.351562 110.519531 325.351562 Z M 110.519531 325.351562 " fill-opacity="1" fill-rule="nonzero"/></g><g clip-path="url(#181357c5a3)"><path fill="#d8d8d8" d="M 110.519531 325.351562 C 107.417969 325.351562 104.898438 322.832031 104.898438 319.730469 L 104.898438 302.484375 C 104.898438 299.382812 107.417969 296.863281 110.519531 296.863281 C 113.621094 296.863281 116.140625 299.382812 116.140625 302.484375 L 116.140625 319.730469 C 116.140625 322.832031 113.621094 325.351562 110.519531 325.351562 Z M 110.519531 325.351562 " fill-opacity="1" fill-rule="nonzero"/></g><g clip-path="url(#d25e13e805)"><path fill="#d8d8d8" d="M 59.257812 325.351562 C 56.160156 325.351562 53.640625 322.832031 53.640625 319.730469 L 53.640625 302.484375 C 53.640625 299.382812 56.160156 296.863281 59.257812 296.863281 C 62.359375 296.863281 64.878906 299.382812 64.878906 302.484375 L 64.878906 319.730469 C 64.878906 322.832031 62.359375 325.351562 59.257812 325.351562 Z M 59.257812 325.351562 " fill-opacity="1" fill-rule="nonzero"/></g><g clip-path="url(#b7321253d5)"><path fill="#d8d8d8" d="M 180 100.539062 C 161.878906 100.539062 147.054688 85.808594 147.054688 67.589844 C 147.054688 49.375 161.78125 34.644531 180 34.644531 C 198.121094 34.644531 212.945312 49.375 212.945312 67.589844 C 212.945312 85.808594 198.121094 100.539062 180 100.539062 Z M 180 45.886719 C 168.082031 45.886719 158.292969 55.574219 158.292969 67.589844 C 158.292969 79.605469 167.984375 89.296875 180 89.296875 C 192.015625 89.296875 201.707031 79.605469 201.707031 67.589844 C 201.707031 55.574219 191.917969 45.886719 180 45.886719 Z M 180 45.886719 " fill-opacity="1" fill-rule="nonzero"/></g><path fill="#d8d8d8" d="M 149.476562 161.394531 C 146.375 161.394531 143.855469 158.875 143.855469 155.773438 L 143.855469 135.324219 C 143.855469 132.226562 146.375 129.707031 149.476562 129.707031 C 152.578125 129.707031 155.097656 132.226562 155.097656 135.324219 L 155.097656 155.773438 C 155.097656 158.875 152.671875 161.394531 149.476562 161.394531 Z M 149.476562 161.394531 " fill-opacity="1" fill-rule="nonzero"/><path fill="#d8d8d8" d="M 210.425781 161.394531 C 207.324219 161.394531 204.804688 158.875 204.804688 155.773438 L 204.804688 135.324219 C 204.804688 132.226562 207.324219 129.707031 210.425781 129.707031 C 213.527344 129.707031 216.046875 132.226562 216.046875 135.324219 L 216.046875 155.773438 C 216.046875 158.875 213.527344 161.394531 210.425781 161.394531 Z M 210.425781 161.394531 " fill-opacity="1" fill-rule="nonzero"/><path fill="#d8d8d8" d="M 238.820312 161.394531 L 121.179688 161.394531 C 118.078125 161.394531 115.558594 158.875 115.558594 155.773438 L 115.558594 148.117188 C 115.558594 125.441406 127.1875 104.800781 146.664062 93.078125 C 149.28125 91.527344 152.769531 92.300781 154.417969 95.015625 C 156.066406 97.632812 155.191406 101.121094 152.480469 102.765625 C 136.394531 112.457031 126.800781 129.511719 126.800781 148.214844 L 126.800781 150.25 L 233.199219 150.25 L 233.199219 148.214844 C 233.199219 129.414062 223.605469 112.457031 207.519531 102.765625 C 204.902344 101.121094 204.03125 97.726562 205.582031 95.015625 C 207.230469 92.398438 210.621094 91.527344 213.335938 93.078125 C 232.8125 104.898438 244.441406 125.441406 244.441406 148.214844 L 244.441406 155.871094 C 244.441406 158.875 241.921875 161.394531 238.820312 161.394531 Z M 238.820312 161.394531 " fill-opacity="1" fill-rule="nonzero"/><path fill="#d8d8d8" d="M 84.9375 207.519531 C 81.835938 207.519531 79.316406 205 79.316406 201.898438 L 79.316406 73.40625 C 79.316406 64.101562 86.875 56.542969 96.179688 56.542969 L 125.25 56.542969 C 128.351562 56.542969 130.871094 59.0625 130.871094 62.164062 C 130.871094 65.265625 128.351562 67.785156 125.25 67.785156 L 96.179688 67.785156 C 93.078125 67.785156 90.558594 70.304688 90.558594 73.40625 L 90.558594 201.898438 C 90.460938 205 88.039062 207.519531 84.9375 207.519531 Z M 84.9375 207.519531 " fill-opacity="1" fill-rule="nonzero"/><path fill="#d8d8d8" d="M 180 207.519531 C 176.898438 207.519531 174.378906 205 174.378906 201.898438 L 174.378906 178.835938 C 174.378906 175.734375 176.898438 173.214844 180 173.214844 C 183.101562 173.214844 185.621094 175.734375 185.621094 178.835938 L 185.621094 201.898438 C 185.621094 205 183.101562 207.519531 180 207.519531 Z M 180 207.519531 " fill-opacity="1" fill-rule="nonzero"/><path fill="#d8d8d8" d="M 275.0625 207.519531 C 271.960938 207.519531 269.441406 205 269.441406 201.898438 L 269.441406 73.40625 C 269.441406 70.304688 266.921875 67.785156 263.820312 67.785156 L 234.75 67.785156 C 231.648438 67.785156 229.128906 65.265625 229.128906 62.164062 C 229.128906 59.0625 231.648438 56.542969 234.75 56.542969 L 263.820312 56.542969 C 273.121094 56.542969 280.679688 64.101562 280.679688 73.40625 L 280.679688 201.898438 C 280.679688 205 278.160156 207.519531 275.0625 207.519531 Z M 275.0625 207.519531 " fill-opacity="1" fill-rule="nonzero"/><g clip-path="url(#8f1c1fab92)"><path fill="#d8d8d8" d="M 334.269531 325.351562 L 25.730469 325.351562 C 22.628906 325.351562 20.109375 322.832031 20.109375 319.730469 C 20.109375 316.628906 22.628906 314.109375 25.730469 314.109375 L 334.269531 314.109375 C 337.367188 314.109375 339.886719 316.628906 339.886719 319.730469 C 339.886719 322.832031 337.367188 325.351562 334.269531 325.351562 Z M 334.269531 325.351562 " fill-opacity="1" fill-rule="nonzero"/></g></svg>